<svg xmlns="http://www.w3.org/2000/svg" version="1.1" xmlns:xlink="http://www.w3.org/1999/xlink" viewBox="0 0 4.053027891872958 3.3064271299860835"><g transform="matrix(0.8435376268672994,0,0,0.8435376268672994,2.0263695546294906,2.947258999675735)"><rect width="4.666315810361211" height="4.666315810361211" x="-2.3329867316580626" y="-3.86722751092952" fill="#e37f7c"></rect><g transform="matrix(1,0,0,1,0,0)"><path d=" M -1.2010018027267149 -1.8209669767332084 Q -1.1645596604915986 -1.7866745538191655 -1.1434177376432164 -1.768316473901237 Q -1.089052793175948 -1.7211099826837062 -1.05355516907795 -1.7002193464225188 Q -1.018057544979952 -1.6793287101613315 -0.9933700432510078 -1.681068611992865 Q -0.9686825415220635 -1.6828085138243984 -0.948357524470071 -1.7062156426922501 Q -0.9378671930883975 -1.7182967414627544 -0.9309936741701614 -1.7414647093857434 Q -0.9241201552519255 -1.7646326773087324 -0.9243996312180469 -1.788714244807223 Q -0.9247382151247114 -1.8035764573254907 -0.9175261122998108 -1.8118822127302123 Q -0.9096583637635558 -1.8209430368080903 -0.8945475938407834 -1.817754834753477 Q -0.8794368239180111 -1.8145666326988639 -0.8650905191280375 -1.8021093641831265 Q -0.8507442143380639 -1.7896520956673894 -0.8420703210564062 -1.7721874578143328 Q -0.8333964277747485 -1.7547228199612763 -0.8341702893671894 -1.7355290413276736 Q -0.8357959134118985 -1.6680727047352875 -0.8790685303613017 -1.618238172306958 Q -0.9413548729399882 -1.54650664835709 -1.0302312437555328 -1.5654074607908939 Q -1.1191076145710772 -1.584308273224698 -1.2157564047351102 -1.668230924278086 Q -1.2489794263539964 -1.6970793355776883 -1.2809905795119754 -1.7288485986081144 L -1.3065607622548046 -1.6994009203550107 Q -1.3262301335954425 -1.6767488601603155 -1.3414201689693872 -1.6760327419170729 Q -1.3566102043433321 -1.67531662367383 -1.3747318524990884 -1.6910521207463403 Q -1.4170156981958526 -1.7277682805821974 -1.3875116411848958 -1.7617463708742402 L -1.350139835637684 -1.8047852852441613 Q -1.4220514125918715 -1.8897424809368273 -1.4678150619517027 -1.975833644230573 Q -1.5135787113115342 -2.061924807524319 -1.5218979569499331 -2.134705575258714 Q -1.5302172025883323 -2.2074863429931093 -1.4928453970411202 -2.25052525736303 Q -1.4653082771642274 -2.2822381416356032 -1.4216352391849263 -2.2761008984712396 Q -1.3779622012056252 -2.269963655306876 -1.3356783555088607 -2.2332474954710184 Q -1.2186427111696023 -2.1316224102110564 -1.2170437562327012 -1.9580642258949321 L -1.1436114365609866 -2.042631917288461 Q -1.133121105179313 -2.0547130160589653 -1.1232461044877353 -2.055408976791578 Q -1.1133711037961578 -2.056104937524192 -1.099024799006184 -2.0436476690084544 Q -1.046925060558385 -1.9984081149249873 -1.1210130259414544 -1.913085354858302 L -1.2010018027267149 -1.8209669767332084 M -1.4317102947116795 -2.1173149001712233 Q -1.4155246651283706 -2.0787594155420304 -1.3761307526008135 -2.0227003426298675 Q -1.3367368400732567 -1.9666412697177047 -1.2827883803724802 -1.9052282116932608 Q -1.282613785733541 -1.9832151946885792 -1.3112190979940186 -2.047123223217713 Q -1.3398244102544963 -2.1110312517468466 -1.3790879812586345 -2.1451248287372855 Q -1.4236370329748684 -2.1838079257072067 -1.4380612386246696 -2.1671964148977634 Q -1.4478959242949885 -2.1558703848004157 -1.4317102947116795 -2.1173149001712233 M -0.8541516933507886 -1.9914811505439576 Q -0.8747033870480164 -1.9981051890534562 -0.8891818378410878 -2.023232354883144 Q -0.9026617747863611 -2.0466266127245767 -0.8974549858763317 -2.0646304831208666 Q -0.8922481969663023 -2.082634353517156 -0.8707189069667943 -2.0973479415267846 L -0.7030809766487083 -2.2170246908086253 Q -0.6824181406433274 -2.2312390218943547 -0.6634817863260751 -2.225415407452148 Q -0.6445454320088229 -2.2195917930099407 -0.6305662381396506 -2.1953310811743805 Q -0.603606364249104 -2.148542565491514 -0.6461656873242209 -2.11824893547813 L -0.813803617642307 -1.9985721861962893 Q -0.8335999996535606 -1.984857112034459 -0.8541516933507886 -1.9914811505439576 M -0.35907942209493915 -1.9971441151405884 Q -0.4240454671075071 -2.0399215974814764 -0.4432101785638066 -2.1288806545515513 Q -0.46026887777216113 -2.2080639910644746 -0.4418332467017423 -2.27443512565652 Q -0.42339761563132344 -2.3408062602485655 -0.38049128120807163 -2.3838068005516835 Q -0.33758494678481976 -2.4268073408548014 -0.2828409116647739 -2.4386010094432935 Q -0.22907444860044307 -2.450184076806991 -0.19241396109531117 -2.4248363223524825 Q -0.15575347359017916 -2.399488567897974 -0.14501281112565967 -2.349632393056503 Q -0.13616755968429062 -2.308574366716469 -0.14814520719597962 -2.2763286544420325 Q -0.16012285470766852 -2.244082942167596 -0.18945001637912168 -2.237764905423761 Q -0.20802388543770867 -2.233763482152666 -0.22116137510158287 -2.240139716568965 Q -0.2342988647654571 -2.2465159509852644 -0.2376684843621691 -2.2621571038767057 Q -0.23914269293573062 -2.2690001082667117 -0.2390829598474509 -2.2782194592177367 Q -0.23902322675917118 -2.2874388101687613 -0.2388880596026341 -2.2915596996164163 Q -0.2371592176959761 -2.3072762865761156 -0.23989703361830458 -2.319984723300412 Q -0.24263484954063308 -2.332693160024708 -0.25046327647634276 -2.3381672564535494 Q -0.25829170341205243 -2.343641352882391 -0.27002256808063374 -2.341114138184857 Q -0.2925067253620811 -2.3362703100145836 -0.307740841368096 -2.312018058376534 Q -0.3229749573741108 -2.2877658067384843 -0.3273347791748845 -2.2510235700909216 Q -0.3316946009756583 -2.214281333443359 -0.32284934953428934 -2.1732233071033247 Q -0.2984196074581273 -2.0598249486403724 -0.19968482983090166 -2.081095672344617 Q -0.15960437554658236 -2.0897303225611914 -0.11896123658196361 -2.1266171122710955 Q -0.07831809761734487 -2.1635039019809996 -0.044932850418147596 -2.2269580213858773 Q -0.03615040289668936 -2.243171244863423 -0.02148682206096275 -2.2463302632353406 Q -0.008778385336666417 -2.249068079157669 0.001080619778730918 -2.2389167236750467 Q 0.010939624894128197 -2.2287653681924238 0.015362250614812722 -2.208236355022407 Q 0.023365097157003745 -2.171088616905233 0.00984565749348476 -2.1436254642969748 Q -0.023885358087044173 -2.077028027500157 -0.08128238915535685 -2.0324401275210917 Q -0.13867942022366941 -1.987852227542026 -0.19831131562229085 -1.9750055528295614 Q -0.2941133770823712 -1.9543666327997005 -0.35907942209493915 -1.9971441151405884 M -0.0030989625123641062 -2.0451843743901104 Q -0.03416616205351446 -2.094467526812316 -0.025015294581593905 -2.166891705264759 Q -0.014986946667160425 -2.246260667952368 0.030684034524383688 -2.3125585674439932 Q 0.0763550157159278 -2.3788564669356185 0.14282281996050045 -2.414304047937785 Q 0.20929062420507316 -2.4497516289399517 0.27774635452313595 -2.441102178863753 Q 0.2995728192622284 -2.4383443831872835 0.3059481475482832 -2.428971273284747 Q 0.312323475834338 -2.4195981633822106 0.31452624032584436 -2.397144926898466 Q 0.33586201042706343 -2.3984809337053075 0.35868058719975104 -2.395597783679908 Q 0.40729407684591157 -2.3894554205823173 0.4029066746333469 -2.3547314994064883 Q 0.4002742333058081 -2.3338971467009912 0.37548955923637833 -2.2574006112809335 Q 0.33825523233669264 -2.146190877442895 0.3326142866348238 -2.1015458359311148 Q 0.3307339714008675 -2.0866641554271883 0.3370466225124571 -2.076794989507854 Q 0.34335927362404667 -2.06692582358852 0.35526461802718806 -2.065421571401355 Q 0.3741147466654952 -2.063039838771677 0.40397295312135845 -2.083962016173636 Q 0.4338311595772218 -2.104884193575595 0.48636280231377 -2.1536840553725267 Q 0.5000231076019372 -2.1660693716556936 0.5149047881058639 -2.164189056421737 Q 0.5278022445426004 -2.1625594498856415 0.5337388326073986 -2.1497139478655223 Q 0.539675420672197 -2.1368684458454026 0.5370429793446582 -2.1160340931399055 Q 0.5320288053874415 -2.076349611796101 0.5104208810726651 -2.0569048796866864 Q 0.46335121589981426 -2.0114466942794826 0.4133266601418743 -1.9824890731544529 Q 0.3633021043839345 -1.9535314520294231 0.3206412869393446 -1.9589216890334311 Q 0.2879015898307059 -1.9630583825481351 0.2634389817577747 -1.9888281478996115 Q 0.23897637368484353 -2.0145979132510883 0.2299756248227982 -2.0550452434463233 Q 0.1678560337656972 -1.9782262587687156 0.08947918311168325 -1.9881292523342187 Q 0.027968237028786244 -1.9959012219679046 -0.0030989625123641062 -2.0451843743901104 M 0.18278392404626526 -2.1043498413842254 Q 0.20588537779035837 -2.12763766727909 0.2202046230967224 -2.169170295583306 L 0.2799779685429386 -2.3470807988543814 Q 0.23818390878301343 -2.351353569475864 0.19914062394800913 -2.3255442318382427 Q 0.1600973391130049 -2.299734894200622 0.13299526896098657 -2.2527617338484047 Q 0.10589319880896823 -2.205788573496188 0.0988733552688648 -2.1502302996148615 Q 0.09498737045202181 -2.119474826573413 0.10550845563800447 -2.1030262167078564 Q 0.11602954082398713 -2.086577606842299 0.1378560055630796 -2.08381981116583 Q 0.15968247030217209 -2.081062015489361 0.18278392404626526 -2.1043498413842254 M 0.46574746377315535 -1.9516642285953614 Q 0.47145648041705046 -1.9941807798308477 0.5138900163342975 -2.0712741973809843 Q 0.5765759216665943 -2.1851622005800495 0.6654075142992416 -2.269820030403093 Q 0.6872758472486893 -2.2908860222860334 0.711744799460742 -2.2928277683158433 Q 0.7362137516727946 -2.2947695143456532 0.7686280295063748 -2.276928141289538 Q 0.7861492607677694 -2.2672841558538 0.7907467569133928 -2.2590462538641565 Q 0.7953442530590161 -2.2508083518745123 0.7885934632539996 -2.238543489991536 Q 0.7808782749054092 -2.2245265049824203 0.7407341922392969 -2.182700046527319 Q 0.7126856057371236 -2.1524795767223983 0.6929632582050982 -2.129090925461028 Q 0.6732409106730729 -2.105702274199657 0.6485198964621703 -2.0690843625117363 Q 0.7188990654171449 -2.128513080966766 0.7808563501794965 -2.156050235229269 Q 0.842813634941848 -2.1835873894917714 0.8885086499342012 -2.184689934206793 Q 0.9342036649265544 -2.1857924789218144 0.9631136965078556 -2.1698799029528466 Q 1.0200576981073883 -2.1385369502866984 0.9887147454412398 -2.0815929486871654 Q 0.9824461549080102 -2.070204148367259 0.9504516372510377 -2.0307408636598545 Q 0.9241551738750039 -1.9995559953113602 0.9193331811571349 -1.990795379680663 Q 0.9024562066445934 -1.9601332249732222 0.9243577457213368 -1.9480782431785497 Q 0.9488874694872893 -1.9345766635685167 1.008650946220981 -1.9519066043849613 Q 1.0263083370741173 -1.9570268141716383 1.0385731989570934 -1.9502760243666217 Q 1.0499619992770002 -1.944007433833392 1.0509871693744737 -1.9303162313196882 Q 1.0520123394719474 -1.9166250288059845 1.0428505533079964 -1.8999798591076598 Q 1.0250091802518813 -1.8675655812740795 0.9973617642829615 -1.858812273885353 Q 0.958848261635189 -1.8469080681663639 0.9161108679484425 -1.847031278815443 Q 0.8733734742616961 -1.8471544894645222 0.8365788886127673 -1.867406858879572 Q 0.7901476257700715 -1.8929634202842778 0.7790753131239001 -1.9298775624613003 Q 0.7680030004777286 -1.9667917046383228 0.7901841669799259 -2.0070905365395304 Q 0.7974171560567294 -2.0202314599855766 0.8072783298227422 -2.0319257856162616 Q 0.8186744383846196 -2.0484826183340825 0.8220498332871279 -2.054615049275571 Q 0.8297650216357182 -2.0686320342846867 0.8201283444419512 -2.0739362262743426 Q 0.8069874209959051 -2.081169215351146 0.7693702370958355 -2.063635035147089 Q 0.731753053195766 -2.046100854943032 0.6842066157338129 -2.009490251497082 Q 0.6366601782718599 -1.9728796480511321 0.5941050992468131 -1.926672881780682 Q 0.5618050562790619 -1.8908021803060604 0.5411458756300669 -1.8833390539563197 Q 0.5204866949810719 -1.8758759276065793 0.49332878652591017 -1.890824105031973 Q 0.4600384471292603 -1.9091476773598752 0.46574746377315535 -1.9516642285953614 M 1.2073067354128466 -1.5236375238023856 Q 1.2031521338394238 -1.510110170559193 1.1872843798703583 -1.4963546486142723 Q 1.1600825159233885 -1.4727737538515504 1.1293013027681809 -1.4685884322756537 Q 1.078469491571628 -1.4615793688233794 1.0305312847263195 -1.4802389059145402 Q 0.982593077881011 -1.4988984430057013 0.9413265120462481 -1.5465017049128982 Q 0.8784441260123236 -1.6190400087714838 0.8871752303047264 -1.6967511264949806 Q 0.8959063345971293 -1.7744622442184774 0.9699558531194354 -1.838654679961442 Q 1.022092759017794 -1.8838513949233253 1.0860471160445613 -1.9009127611433203 Q 1.1500014730713284 -1.9179741273633153 1.2101815096942201 -1.9019862196807131 Q 1.2703615463171118 -1.885998311998111 1.3129381618609148 -1.8368838354271937 Q 1.3509296034230776 -1.7930586101792982 1.3477870203821 -1.7440139960832473 Q 1.3446444373411226 -1.6949693819871963 1.3000636047613667 -1.6563229155705135 Q 1.2479266988630084 -1.6111262006086304 1.1781004056371827 -1.6161050332369713 Q 1.1082741124113573 -1.6210838658653122 1.008413542099524 -1.6920054175756025 Q 0.9893762013424328 -1.6437396983030341 1.0267126180500754 -1.6006700803869989 Q 1.0535686370853974 -1.569690179780728 1.0852833350355238 -1.5621120577223118 Q 1.11699803298565 -1.5545339356638954 1.1739262328275637 -1.5575637975021883 Q 1.1931206410597082 -1.5583218823376657 1.2029460138775088 -1.5469877723597618 Q 1.2114613369862695 -1.5371648770455784 1.2073067354128466 -1.5236375238023856 M 1.1543230521342736 -1.8045961138227584 Q 1.105128803074021 -1.7956980320408331 1.0590367558305447 -1.7557415159151104 L 1.057525541166824 -1.7544314662060703 Q 1.1067505102295505 -1.7190209815895952 1.1501783605753197 -1.7116710282329073 Q 1.1936062109210888 -1.7043210748762196 1.2215636821999185 -1.7285569944934613 Q 1.2359202215052636 -1.7410024667293422 1.2377319448491964 -1.7564691295408554 Q 1.2395436681931287 -1.7719357923523689 1.2277532208117679 -1.7855367243258538 Q 1.2035173011945264 -1.8134941956046835 1.1543230521342736 -1.8045961138227584" fill="#ffffff" fill-rule="nonzero"></path></g><g transform="matrix(1,0,0,1,0,0)"><g transform="matrix(1,0,0,1,0,0)" clip-path="url(#SvgjsClipPath87540)"><g clip-path="url(#SvgjsClipPath87535a6135e68-099b-40a0-9e5c-198834734b82)"><path d=" M -0.231126332772011 -1.3515279309026311 L 0.5820139654513155 -1.3515279309026311 L -0.26501671974386454 -0.569148501935289 L -1.078157017967191 -0.569148501935289 Z" fill="#efe0e2" transform="matrix(1,0,0,1,0,0)" fill-rule="nonzero"></path></g><g clip-path="url(#SvgjsClipPath87535a6135e68-099b-40a0-9e5c-198834734b82)"><path d=" M 0.26501671974386465 -0.9698794289673422 L 1.078157017967191 -0.9698794289673422 L 0.23112633277201078 -0.1875 L -0.5820139654513156 -0.1875 Z" fill="#ffffff" transform="matrix(1,0,0,1,0,0)" fill-rule="nonzero"></path></g></g></g></g><defs><clipPath id="SvgjsClipPath87540"><path d=" M -1.078157017967191 -1.3515279309026311 h 2.156314035934382 v 1.1640279309026311 h -2.156314035934382 Z"></path></clipPath><clipPath id="SvgjsClipPath87535a6135e68-099b-40a0-9e5c-198834734b82"><path d=" M -1.078157017967191 -1.3515279309026311 L 1.078157017967191 -1.3515279309026311 L 1.078157017967191 -0.1875 L -1.078157017967191 -0.1875 Z"></path></clipPath></defs></svg>